<svg width="28" height="28" viewBox="0 0 28 28" fill="none" xmlns="http://www.w3.org/2000/svg">
<path d="M14 0C11.2311 0 8.52431 0.821086 6.22202 2.35943C3.91973 3.89777 2.12532 6.08427 1.06569 8.64243C0.00606596 11.2006 -0.271181 14.0155 0.269012 16.7313C0.809205 19.447 2.14258 21.9416 4.10051 23.8995C6.05845 25.8574 8.55301 27.1908 11.2687 27.731C13.9845 28.2712 16.7994 27.9939 19.3576 26.9343C21.9157 25.8747 24.1022 24.0803 25.6406 21.778C27.1789 19.4757 28 16.7689 28 14C28 10.287 26.525 6.72601 23.8995 4.1005C21.274 1.475 17.713 0 14 0ZM6.24001 23.14C6.55718 21.8234 7.20341 20.6088 8.11815 19.6101C9.03289 18.6114 10.1862 17.8613 11.47 17.43C12.2606 17.8053 13.1248 18 14 18C14.8752 18 15.7394 17.8053 16.53 17.43C17.8138 17.8613 18.9671 18.6114 19.8819 19.6101C20.7966 20.6088 21.4428 21.8234 21.76 23.14C19.5921 24.9779 16.8422 25.9867 14 25.9867C11.1578 25.9867 8.40793 24.9779 6.24001 23.14ZM14 16C13.2089 16 12.4355 15.7654 11.7777 15.3259C11.1199 14.8864 10.6072 14.2616 10.3045 13.5307C10.0017 12.7998 9.92252 11.9956 10.0769 11.2196C10.2312 10.4437 10.6122 9.73098 11.1716 9.17157C11.731 8.61216 12.4437 8.2312 13.2196 8.07686C13.9956 7.92252 14.7998 8.00173 15.5307 8.30448C16.2616 8.60723 16.8864 9.11992 17.3259 9.77772C17.7654 10.4355 18 11.2089 18 12C18 13.0609 17.5786 14.0783 16.8284 14.8284C16.0783 15.5786 15.0609 16 14 16ZM23.34 21.51C22.4501 19.1297 20.6874 17.1775 18.41 16.05C19.2007 15.1929 19.7245 14.124 19.9174 12.9739C20.1102 11.8238 19.9638 10.6425 19.4959 9.57436C19.0281 8.50621 18.2591 7.59754 17.283 6.95948C16.307 6.32141 15.1661 5.9816 14 5.9816C12.8339 5.9816 11.693 6.32141 10.717 6.95948C9.74091 7.59754 8.97193 8.50621 8.50408 9.57436C8.03623 10.6425 7.88977 11.8238 8.08263 12.9739C8.27549 14.124 8.7993 15.1929 9.59001 16.05C7.31262 17.1775 5.5499 19.1297 4.66001 21.51C3.23822 19.7474 2.34418 17.6186 2.0812 15.3693C1.81822 13.1201 2.19703 10.8424 3.17387 8.79942C4.1507 6.75642 5.68568 5.03151 7.60143 3.82403C9.51717 2.61655 11.7355 1.97578 14 1.97578C16.2645 1.97578 18.4828 2.61655 20.3986 3.82403C22.3143 5.03151 23.8493 6.75642 24.8261 8.79942C25.803 10.8424 26.1818 13.1201 25.9188 15.3693C25.6558 17.6186 24.7618 19.7474 23.34 21.51Z" fill="#FC972E"/>
</svg>
